<svg width="126" height="25" viewBox="0 0 126 25" fill="none" xmlns="http://www.w3.org/2000/svg">
<path d="M69.2261 6.64143C67.8823 5.10488 66.0473 4.08179 64.0338 3.7465C62.0203 3.41122 59.9528 3.78446 58.1836 4.80265C56.4144 5.82084 55.053 7.42097 54.3313 9.3304C53.6097 11.2398 53.5724 13.3404 54.2259 15.2743C54.8793 17.2081 56.1831 18.8555 57.9151 19.9358C59.647 21.0161 61.7 21.4625 63.7241 21.1988C65.7483 20.9352 67.6184 19.9779 69.0159 18.4899C70.4133 17.002 71.2516 15.0756 71.3879 13.0389L62.5846 12.4497L69.2261 6.64143Z" fill="white"/>
<path d="M19.0913 6.64143C17.7476 5.10488 15.9126 4.08179 13.899 3.7465C11.8855 3.41122 9.81802 3.78446 8.04883 4.80265C6.27965 5.82084 4.91824 7.42097 4.19657 9.3304C3.4749 11.2398 3.43763 13.3404 4.0911 15.2743C4.74458 17.2081 6.04836 18.8555 7.78031 19.9358C9.51227 21.0161 11.5652 21.4625 13.5894 21.1988C15.6135 20.9352 17.4837 19.9779 18.8811 18.4899C20.2785 17.002 21.1168 15.0756 21.2532 13.0389L12.4498 12.4497L19.0913 6.64143Z" fill="white"/>
<path d="M119.361 6.64143C118.017 5.10488 116.182 4.08179 114.169 3.7465C112.155 3.41122 110.088 3.78446 108.318 4.80265C106.549 5.82084 105.188 7.42097 104.466 9.3304C103.744 11.2398 103.707 13.3404 104.361 15.2743C105.014 17.2081 106.318 18.8555 108.05 19.9358C109.782 21.0161 111.835 21.4625 113.859 21.1988C115.883 20.9352 117.753 19.9779 119.151 18.4899C120.548 17.002 121.386 15.0756 121.523 13.0389L112.719 12.4497L119.361 6.64143Z" fill="white"/>
</svg>
