<svg width="1920" height="3144" viewBox="0 0 1920 3144" fill="none" xmlns="http://www.w3.org/2000/svg">
<g filter="url(#filter0_f_84_2)">
<path d="M1919.64 19C1736.14 389 355.034 238.233 395.539 605.279C433.591 950.101 967.934 1185.9 1668.96 1415.1C2369.98 1644.31 250.26 1860.34 -24.6826 2265C-299.625 2669.66 1260.56 2694.49 1598.21 3124" stroke="#D47201" stroke-width="4"/>
</g>
<g filter="url(#filter1_f_84_2)">
<path d="M1919.64 19C1736.14 389 355.034 238.233 395.539 605.279C433.591 950.101 967.934 1185.9 1668.96 1415.1C2369.98 1644.31 250.26 1860.34 -24.6826 2265C-299.625 2669.66 1260.56 2694.49 1598.21 3124" stroke="#D47201" stroke-width="4"/>
</g>
<g filter="url(#filter2_f_84_2)">
<path d="M1919.64 19C1736.14 389 355.034 238.233 395.539 605.279C433.591 950.101 967.934 1185.9 1668.96 1415.1C2369.98 1644.31 250.26 1860.34 -24.6826 2265C-299.625 2669.66 1260.56 2694.49 1598.21 3124" stroke="#D47201" stroke-width="4"/>
</g>
<g filter="url(#filter3_i_84_2)">
<path d="M1919.64 19C1684 345 292.783 115.441 371 490C442 830 1125 1006 1684 1247C2243 1488 218 1861 -25.0002 2265C-268 2669 1260.56 2694.49 1598.21 3124" stroke="white" stroke-width="2"/>
</g>
<g filter="url(#filter4_f_84_2)">
<path d="M799.682 842.241C802.199 822.975 797.706 803.465 786.971 787.033C776.235 770.602 759.92 758.267 740.805 752.129C721.691 745.992 700.959 746.432 682.144 753.375C663.328 760.317 647.592 773.333 637.618 790.204C627.643 807.075 624.046 826.757 627.441 845.897C630.835 865.037 641.01 882.451 656.233 895.171C671.455 907.891 690.783 915.131 710.923 915.656C731.063 916.182 750.769 909.961 766.684 898.053L713.28 831.757L799.682 842.241Z" fill="#FF6814"/>
</g>
<g filter="url(#filter5_i_84_2)">
<path d="M799.682 842.241C802.199 822.975 797.706 803.465 786.971 787.033C776.235 770.602 759.92 758.267 740.805 752.129C721.691 745.992 700.959 746.432 682.144 753.375C663.328 760.317 647.592 773.333 637.618 790.204C627.643 807.075 624.046 826.757 627.441 845.897C630.835 865.037 641.01 882.451 656.233 895.171C671.455 907.891 690.783 915.131 710.923 915.656C731.063 916.182 750.769 909.961 766.684 898.053L713.28 831.757L799.682 842.241Z" fill="#FF9255"/>
</g>
<defs>
<filter id="filter0_f_84_2" x="-67.0015" y="10.1113" width="1996.43" height="3123.12" filterUnits="userSpaceOnUse" color-interpolation-filters="sRGB">
<feFlood flood-opacity="0" result="BackgroundImageFix"/>
<feBlend mode="normal" in="SourceGraphic" in2="BackgroundImageFix" result="shape"/>
<feGaussianBlur stdDeviation="4" result="effect1_foregroundBlur_84_2"/>
</filter>
<filter id="filter1_f_84_2" x="-77.0015" y="0.111328" width="2016.43" height="3143.12" filterUnits="userSpaceOnUse" color-interpolation-filters="sRGB">
<feFlood flood-opacity="0" result="BackgroundImageFix"/>
<feBlend mode="normal" in="SourceGraphic" in2="BackgroundImageFix" result="shape"/>
<feGaussianBlur stdDeviation="9" result="effect1_foregroundBlur_84_2"/>
</filter>
<filter id="filter2_f_84_2" x="-72.0015" y="5.11133" width="2006.43" height="3133.12" filterUnits="userSpaceOnUse" color-interpolation-filters="sRGB">
<feFlood flood-opacity="0" result="BackgroundImageFix"/>
<feBlend mode="normal" in="SourceGraphic" in2="BackgroundImageFix" result="shape"/>
<feGaussianBlur stdDeviation="6.5" result="effect1_foregroundBlur_84_2"/>
</filter>
<filter id="filter3_i_84_2" x="-52.0479" y="18.4141" width="1972.5" height="3106.2" filterUnits="userSpaceOnUse" color-interpolation-filters="sRGB">
<feFlood flood-opacity="0" result="BackgroundImageFix"/>
<feBlend mode="normal" in="SourceGraphic" in2="BackgroundImageFix" result="shape"/>
<feColorMatrix in="SourceAlpha" type="matrix" values="0 0 0 0 0 0 0 0 0 0 0 0 0 0 0 0 0 0 127 0" result="hardAlpha"/>
<feOffset/>
<feGaussianBlur stdDeviation="17"/>
<feComposite in2="hardAlpha" operator="arithmetic" k2="-1" k3="1"/>
<feColorMatrix type="matrix" values="0 0 0 0 1 0 0 0 0 0.568627 0 0 0 0 0.352941 0 0 0 0.25 0"/>
<feBlend mode="normal" in2="shape" result="effect1_innerShadow_84_2"/>
</filter>
<filter id="filter4_f_84_2" x="604.196" y="725.826" width="218.168" height="211.861" filterUnits="userSpaceOnUse" color-interpolation-filters="sRGB">
<feFlood flood-opacity="0" result="BackgroundImageFix"/>
<feBlend mode="normal" in="SourceGraphic" in2="BackgroundImageFix" result="shape"/>
<feGaussianBlur stdDeviation="11" result="effect1_foregroundBlur_84_2"/>
</filter>
<filter id="filter5_i_84_2" x="626.196" y="747.826" width="198.168" height="194.861" filterUnits="userSpaceOnUse" color-interpolation-filters="sRGB">
<feFlood flood-opacity="0" result="BackgroundImageFix"/>
<feBlend mode="normal" in="SourceGraphic" in2="BackgroundImageFix" result="shape"/>
<feColorMatrix in="SourceAlpha" type="matrix" values="0 0 0 0 0 0 0 0 0 0 0 0 0 0 0 0 0 0 127 0" result="hardAlpha"/>
<feOffset dx="24" dy="27"/>
<feGaussianBlur stdDeviation="17"/>
<feComposite in2="hardAlpha" operator="arithmetic" k2="-1" k3="1"/>
<feColorMatrix type="matrix" values="0 0 0 0 1 0 0 0 0 0.465687 0 0 0 0 0.166667 0 0 0 1 0"/>
<feBlend mode="normal" in2="shape" result="effect1_innerShadow_84_2"/>
</filter>
</defs>
</svg>
