<svg width="1440" height="2956" viewBox="0 0 1440 2956" fill="none" xmlns="http://www.w3.org/2000/svg">
<g filter="url(#filter0_f_326_2)">
<path d="M1498 -95.5C1456 352.5 161.711 91.0869 199.499 453C234.999 793 733.499 1025.5 1387.5 1251.5C2041.5 1477.5 267.999 1657.5 11.4989 2056.5C-245.001 2455.5 1006.5 2513 1321.5 2936.5" stroke="#D47201" stroke-width="4"/>
</g>
<g filter="url(#filter1_f_326_2)">
<path d="M1498 -95.5C1456 352.5 161.711 91.0869 199.499 453C234.999 793 733.499 1025.5 1387.5 1251.5C2041.5 1477.5 267.999 1657.5 11.4989 2056.5C-245.001 2455.5 1006.5 2513 1321.5 2936.5" stroke="#D47201" stroke-width="4"/>
</g>
<g filter="url(#filter2_f_326_2)">
<path d="M1498 -95.5C1456 352.5 161.711 91.0869 199.499 453C234.999 793 733.499 1025.5 1387.5 1251.5C2041.5 1477.5 267.999 1657.5 11.4989 2056.5C-245.001 2455.5 1006.5 2513 1321.5 2936.5" stroke="#D47201" stroke-width="4"/>
</g>
<g filter="url(#filter3_i_326_2)">
<path d="M1498 -95.5C1456 352.5 161.711 91.0869 199.499 453C234.999 793 733.499 1025.5 1387.5 1251.5C2041.5 1477.5 267.999 1657.5 11.4989 2056.5C-245.001 2455.5 1006.5 2513 1321.5 2936.5" stroke="white" stroke-width="2"/>
</g>
<g filter="url(#filter4_f_326_2)">
<path d="M676.003 1664.36C678.781 1644.15 688.479 1625.52 703.447 1611.66C718.415 1597.8 737.726 1589.56 758.09 1588.34C778.453 1587.12 798.61 1593 815.124 1604.98C831.639 1616.95 843.49 1634.29 848.658 1654.02C853.826 1673.75 851.992 1694.67 843.468 1713.2C834.944 1731.74 820.257 1746.74 801.91 1755.66C783.563 1764.58 762.691 1766.86 742.85 1762.12C723.01 1757.37 705.428 1745.9 693.101 1729.64L763.359 1676.36L676.003 1664.36Z" fill="#FF6814"/>
</g>
<g filter="url(#filter5_i_326_2)">
<path d="M676.003 1664.36C678.781 1644.15 688.479 1625.52 703.447 1611.66C718.415 1597.8 737.726 1589.56 758.09 1588.34C778.453 1587.12 798.61 1593 815.124 1604.98C831.639 1616.95 843.49 1634.29 848.658 1654.02C853.826 1673.75 851.992 1694.67 843.468 1713.2C834.944 1731.74 820.257 1746.74 801.91 1755.66C783.563 1764.58 762.691 1766.86 742.85 1762.12C723.01 1757.37 705.428 1745.9 693.101 1729.64L763.359 1676.36L676.003 1664.36Z" fill="#FF9255"/>
</g>
<defs>
<filter id="filter0_f_326_2" x="-32.9082" y="-103.687" width="1574.25" height="3049.38" filterUnits="userSpaceOnUse" color-interpolation-filters="sRGB">
<feFlood flood-opacity="0" result="BackgroundImageFix"/>
<feBlend mode="normal" in="SourceGraphic" in2="BackgroundImageFix" result="shape"/>
<feGaussianBlur stdDeviation="4" result="effect1_foregroundBlur_326_2"/>
</filter>
<filter id="filter1_f_326_2" x="-42.9082" y="-113.687" width="1594.25" height="3069.38" filterUnits="userSpaceOnUse" color-interpolation-filters="sRGB">
<feFlood flood-opacity="0" result="BackgroundImageFix"/>
<feBlend mode="normal" in="SourceGraphic" in2="BackgroundImageFix" result="shape"/>
<feGaussianBlur stdDeviation="9" result="effect1_foregroundBlur_326_2"/>
</filter>
<filter id="filter2_f_326_2" x="-37.9082" y="-108.687" width="1584.25" height="3059.38" filterUnits="userSpaceOnUse" color-interpolation-filters="sRGB">
<feFlood flood-opacity="0" result="BackgroundImageFix"/>
<feBlend mode="normal" in="SourceGraphic" in2="BackgroundImageFix" result="shape"/>
<feGaussianBlur stdDeviation="6.5" result="effect1_foregroundBlur_326_2"/>
</filter>
<filter id="filter3_i_326_2" x="-23.9082" y="-95.5933" width="1556.25" height="3032.69" filterUnits="userSpaceOnUse" color-interpolation-filters="sRGB">
<feFlood flood-opacity="0" result="BackgroundImageFix"/>
<feBlend mode="normal" in="SourceGraphic" in2="BackgroundImageFix" result="shape"/>
<feColorMatrix in="SourceAlpha" type="matrix" values="0 0 0 0 0 0 0 0 0 0 0 0 0 0 0 0 0 0 127 0" result="hardAlpha"/>
<feOffset/>
<feGaussianBlur stdDeviation="17"/>
<feComposite in2="hardAlpha" operator="arithmetic" k2="-1" k3="1"/>
<feColorMatrix type="matrix" values="0 0 0 0 1 0 0 0 0 0.568627 0 0 0 0 0.352941 0 0 0 0.25 0"/>
<feBlend mode="normal" in2="shape" result="effect1_innerShadow_326_2"/>
</filter>
<filter id="filter4_f_326_2" x="654.003" y="1566.18" width="219.532" height="220.352" filterUnits="userSpaceOnUse" color-interpolation-filters="sRGB">
<feFlood flood-opacity="0" result="BackgroundImageFix"/>
<feBlend mode="normal" in="SourceGraphic" in2="BackgroundImageFix" result="shape"/>
<feGaussianBlur stdDeviation="11" result="effect1_foregroundBlur_326_2"/>
</filter>
<filter id="filter5_i_326_2" x="676.003" y="1588.18" width="199.532" height="203.352" filterUnits="userSpaceOnUse" color-interpolation-filters="sRGB">
<feFlood flood-opacity="0" result="BackgroundImageFix"/>
<feBlend mode="normal" in="SourceGraphic" in2="BackgroundImageFix" result="shape"/>
<feColorMatrix in="SourceAlpha" type="matrix" values="0 0 0 0 0 0 0 0 0 0 0 0 0 0 0 0 0 0 127 0" result="hardAlpha"/>
<feOffset dx="24" dy="27"/>
<feGaussianBlur stdDeviation="17"/>
<feComposite in2="hardAlpha" operator="arithmetic" k2="-1" k3="1"/>
<feColorMatrix type="matrix" values="0 0 0 0 1 0 0 0 0 0.465687 0 0 0 0 0.166667 0 0 0 1 0"/>
<feBlend mode="normal" in2="shape" result="effect1_innerShadow_326_2"/>
</filter>
</defs>
</svg>
